<?xml version="1.0" encoding="utf-8"?>
<svg version="1.1" id="Layer_1" xmlns="http://www.w3.org/2000/svg" xmlns:xlink="http://www.w3.org/1999/xlink" x="0px" y="0px"
	 viewBox="-25 203.7 560.1 386.3" enable-background="new -25 203.7 560.1 386.3" xml:space="preserve">
<path id="path1" fill="#006400" d="M69,589.4c-9.7-2.3-23.8-14.5-39.4-34.2C-2,515.4-19.2,470.7-24.3,415c-1-10.7-1-37.8,0-47.7
	c4.6-46.8,21-87,51-125.6c9.2-11.8,24.4-27.3,31.7-32.2c10.3-7,16.8-7.5,23.1-2c2.5,2.3,3.1,3.3,3.5,6.2c0.6,5.5-2.2,9.7-15.2,23.1
	c-18.2,18.8-26.5,29.2-35.8,44.6C13,316.6,3.9,353.4,5.2,399.3c0.7,24.4,3.3,42.4,9.1,62.4c5.2,18,11.4,32.6,20.7,48.4
	c9.4,15.9,17.2,26,33,42.2c13.8,14.2,17.2,19.1,17.2,24.8c0,5.6-4,10.7-9.6,12.3C72.5,590.2,72.3,590.2,69,589.4L69,589.4z
	 M433.4,589.6c-2.9-0.6-8.2-6.3-8.8-9.4c-1-5.1,2.1-9.7,16.3-24.4c7-7.2,15.6-16.7,19.1-21.1c25.7-32.1,40-67.8,43.8-109.4
	c1.2-12.8,0.6-46-1.1-58.4c-3.4-26-9.8-47.3-20.7-69.7c-10.5-21.4-21.4-36.6-39.7-55.5c-12.3-12.7-16-17.3-17.2-21.9
	c-1.2-4.5-0.3-7.9,3-11.7c4.7-5.3,10-5.8,18.3-1.6c10.1,5,23.1,18.1,38.3,38.3c30.5,40.7,46.2,85.6,49.9,142.5
	c3.2,48.4-8.5,97.3-33,137.9c-16.9,28-42.7,56.7-56.5,62.8C441.4,589.5,436.3,590.2,433.4,589.6L433.4,589.6z M129.3,560.1
	c-8.2-2.5-13-10.7-11-19c1.2-5.1,6.4-10.4,11.4-11.6c5-1.3,265.4-1.3,270.4,0c5.1,1.3,10.2,6.6,11.3,11.8c1.5,6.9-1.6,13.9-7.6,17.4
	l-3.2,1.8L266,560.6C191.9,560.7,130.4,560.5,129.3,560.1L129.3,560.1z"/>
<path fill="#006400" d="M321,380.1H164.5c-12.3,0-22.4-10-22.4-22.4s10-22.4,22.4-22.4h145.4c6.2,0,11.2-5,11.2-11.2
	c0-6.2-5-11.2-11.2-11.2H164.5c-24.7,0-44.7,20.1-44.7,44.7s20.1,44.7,44.7,44.7H321c12.3,0,22.4,10,22.4,22.4s-10,22.4-22.4,22.4
	h-22.4c-24.7,0-44.7,20.1-44.7,44.7v11.2c0,6.2,5,11.2,11.2,11.2c6.2,0,11.2-5,11.2-11.2v-11.2c0-12.3,10-22.4,22.4-22.4H321
	c24.7,0,44.7-20.1,44.7-44.7S345.7,380.1,321,380.1z"/>
</svg>
